%TF.GenerationSoftware,KiCad,Pcbnew,9.0.3*%
%TF.CreationDate,2025-10-03T16:36:05+02:00*%
%TF.ProjectId,board,626f6172-642e-46b6-9963-61645f706362,rev?*%
%TF.SameCoordinates,Original*%
%TF.FileFunction,Soldermask,Top*%
%TF.FilePolarity,Negative*%
%FSLAX46Y46*%
G04 Gerber Fmt 4.6, Leading zero omitted, Abs format (unit mm)*
G04 Created by KiCad (PCBNEW 9.0.3) date 2025-10-03 16:36:05*
%MOMM*%
%LPD*%
G01*
G04 APERTURE LIST*
G04 Aperture macros list*
%AMRoundRect*
0 Rectangle with rounded corners*
0 $1 Rounding radius*
0 $2 $3 $4 $5 $6 $7 $8 $9 X,Y pos of 4 corners*
0 Add a 4 corners polygon primitive as box body*
4,1,4,$2,$3,$4,$5,$6,$7,$8,$9,$2,$3,0*
0 Add four circle primitives for the rounded corners*
1,1,$1+$1,$2,$3*
1,1,$1+$1,$4,$5*
1,1,$1+$1,$6,$7*
1,1,$1+$1,$8,$9*
0 Add four rect primitives between the rounded corners*
20,1,$1+$1,$2,$3,$4,$5,0*
20,1,$1+$1,$4,$5,$6,$7,0*
20,1,$1+$1,$6,$7,$8,$9,0*
20,1,$1+$1,$8,$9,$2,$3,0*%
G04 Aperture macros list end*
%ADD10RoundRect,0.200000X-0.275000X0.200000X-0.275000X-0.200000X0.275000X-0.200000X0.275000X0.200000X0*%
%ADD11RoundRect,0.250000X1.100000X-0.325000X1.100000X0.325000X-1.100000X0.325000X-1.100000X-0.325000X0*%
%ADD12RoundRect,0.250000X-0.650000X0.325000X-0.650000X-0.325000X0.650000X-0.325000X0.650000X0.325000X0*%
%ADD13RoundRect,0.250000X-0.465000X-2.500000X0.465000X-2.500000X0.465000X2.500000X-0.465000X2.500000X0*%
%ADD14RoundRect,0.200000X0.275000X-0.200000X0.275000X0.200000X-0.275000X0.200000X-0.275000X-0.200000X0*%
%ADD15RoundRect,0.250000X-1.100000X0.325000X-1.100000X-0.325000X1.100000X-0.325000X1.100000X0.325000X0*%
%ADD16RoundRect,0.250001X1.149999X-1.149999X1.149999X1.149999X-1.149999X1.149999X-1.149999X-1.149999X0*%
%ADD17C,2.800000*%
%ADD18RoundRect,0.250000X-0.475000X0.250000X-0.475000X-0.250000X0.475000X-0.250000X0.475000X0.250000X0*%
%ADD19R,0.700000X0.300000*%
%ADD20R,0.300000X0.700000*%
%ADD21R,1.125000X1.355000*%
%ADD22R,1.125000X1.340000*%
%ADD23R,0.375000X0.375000*%
%ADD24RoundRect,0.225000X-0.250000X0.225000X-0.250000X-0.225000X0.250000X-0.225000X0.250000X0.225000X0*%
%ADD25RoundRect,0.250001X-1.149999X1.149999X-1.149999X-1.149999X1.149999X-1.149999X1.149999X1.149999X0*%
%ADD26RoundRect,0.225000X0.250000X-0.225000X0.250000X0.225000X-0.250000X0.225000X-0.250000X-0.225000X0*%
%ADD27RoundRect,0.225000X0.225000X0.250000X-0.225000X0.250000X-0.225000X-0.250000X0.225000X-0.250000X0*%
G04 APERTURE END LIST*
D10*
%TO.C,R1*%
X160600000Y-111350000D03*
X160600000Y-113000000D03*
%TD*%
D11*
%TO.C,C8*%
X168350000Y-108500000D03*
X168350000Y-105550000D03*
%TD*%
D12*
%TO.C,C16*%
X170550000Y-100875000D03*
X170550000Y-103825000D03*
%TD*%
D13*
%TO.C,L1*%
X163630000Y-99450000D03*
X167670000Y-99450000D03*
%TD*%
D14*
%TO.C,R5*%
X168950000Y-112050000D03*
X168950000Y-110400000D03*
%TD*%
D11*
%TO.C,C3*%
X153550000Y-105700000D03*
X153550000Y-102750000D03*
%TD*%
D15*
%TO.C,C6*%
X150250000Y-107400000D03*
X150250000Y-110350000D03*
%TD*%
D14*
%TO.C,R2*%
X165750000Y-112950000D03*
X165750000Y-111300000D03*
%TD*%
D12*
%TO.C,C18*%
X175350000Y-100900000D03*
X175350000Y-103850000D03*
%TD*%
D11*
%TO.C,C9*%
X174750000Y-108500000D03*
X174750000Y-105550000D03*
%TD*%
D16*
%TO.C,J1*%
X181000000Y-106500000D03*
D17*
X181000000Y-101500000D03*
%TD*%
D18*
%TO.C,C11*%
X159450000Y-107350000D03*
X159450000Y-109250000D03*
%TD*%
D10*
%TO.C,R4*%
X167450000Y-110400000D03*
X167450000Y-112050000D03*
%TD*%
D11*
%TO.C,C2*%
X150250000Y-105700000D03*
X150250000Y-102750000D03*
%TD*%
D15*
%TO.C,C5*%
X153550000Y-107400000D03*
X153550000Y-110350000D03*
%TD*%
%TO.C,C4*%
X156850000Y-107400000D03*
X156850000Y-110350000D03*
%TD*%
D10*
%TO.C,R3*%
X162150000Y-111350000D03*
X162150000Y-113000000D03*
%TD*%
D19*
%TO.C,U1*%
X166150000Y-108950000D03*
X166150000Y-108450000D03*
X166150000Y-107950000D03*
X166150000Y-107450000D03*
X166150000Y-106950000D03*
X166150000Y-106450000D03*
X166150000Y-105950000D03*
X166150000Y-105450000D03*
X166150000Y-104950001D03*
X166150000Y-104450000D03*
D20*
X165500000Y-103800000D03*
X165000000Y-103800000D03*
X164500000Y-103800000D03*
X164000000Y-103800000D03*
X163500000Y-103800000D03*
X163000000Y-103800000D03*
D19*
X162350000Y-104450000D03*
X162350000Y-104950000D03*
X162350000Y-105450000D03*
X162350000Y-105950000D03*
X162350000Y-106450000D03*
X162350000Y-106950000D03*
X162350000Y-107450000D03*
X162350000Y-107950000D03*
X162350000Y-108449999D03*
X162350000Y-108950000D03*
D20*
X163000000Y-109600000D03*
X163500000Y-109600000D03*
X164000000Y-109600000D03*
X164500000Y-109600000D03*
X165000000Y-109600000D03*
X165500000Y-109600000D03*
D21*
X164912500Y-108247500D03*
X163587500Y-108247500D03*
D22*
X164912500Y-106700000D03*
X163587500Y-106700000D03*
D21*
X164912500Y-105152500D03*
X163587500Y-105152500D03*
D23*
X166062500Y-109512500D03*
X166062500Y-103887500D03*
X162437500Y-103887500D03*
X162437500Y-109512500D03*
%TD*%
D24*
%TO.C,C12*%
X171950000Y-110450000D03*
X171950000Y-112000000D03*
%TD*%
D11*
%TO.C,C10*%
X156850000Y-105700000D03*
X156850000Y-102750000D03*
%TD*%
D24*
%TO.C,C15*%
X170450000Y-110450000D03*
X170450000Y-112000000D03*
%TD*%
D25*
%TO.C,J2*%
X144000000Y-102000000D03*
D17*
X144000000Y-107000000D03*
%TD*%
D26*
%TO.C,C13*%
X164250000Y-112900000D03*
X164250000Y-111350000D03*
%TD*%
D11*
%TO.C,C1*%
X171550000Y-108500000D03*
X171550000Y-105550000D03*
%TD*%
D12*
%TO.C,C17*%
X172950000Y-100900000D03*
X172950000Y-103850000D03*
%TD*%
D11*
%TO.C,C7*%
X160150000Y-105700000D03*
X160150000Y-102750000D03*
%TD*%
D27*
%TO.C,C14*%
X168650000Y-103950000D03*
X167100000Y-103950000D03*
%TD*%
M02*
