M48
; DRILL file {KiCad 9.0.3} date 2025-10-03T16:36:05+0200
; FORMAT={-:-/ absolute / inch / decimal}
; #@! TF.CreationDate,2025-10-03T16:36:05+02:00
; #@! TF.GenerationSoftware,Kicad,Pcbnew,9.0.3
; #@! TF.FileFunction,Plated,1,2,PTH
FMAT,2
INCH
; #@! TA.AperFunction,Plated,PTH,ViaDrill
T1C0.0079
; #@! TA.AperFunction,Plated,PTH,ComponentDrill
T2C0.0512
%
G90
G05
T1
X5.5512Y-3.5827
X5.5512Y-3.6614
X5.5512Y-3.7402
X5.5512Y-3.8189
X5.5512Y-3.8976
X5.5512Y-3.9764
X5.5512Y-4.0551
X5.5512Y-4.3307
X5.5512Y-4.4094
X5.5512Y-4.4882
X5.5512Y-4.5669
X5.5512Y-4.6457
X5.6299Y-3.5827
X5.6299Y-4.4094
X5.6299Y-4.5669
X5.6299Y-4.6457
X5.7087Y-3.5827
X5.7087Y-4.4094
X5.7087Y-4.6457
X5.7579Y-4.2126
X5.7874Y-3.5827
X5.7874Y-4.4094
X5.7874Y-4.6457
X5.7972Y-4.2126
X5.8268Y-4.0453
X5.8366Y-4.2126
X5.8661Y-3.5827
X5.8661Y-4.0453
X5.8661Y-4.4094
X5.8661Y-4.6457
X5.876Y-4.2126
X5.9055Y-4.0453
X5.9154Y-4.2126
X5.9449Y-3.5827
X5.9449Y-4.0453
X5.9449Y-4.4094
X5.9449Y-4.6457
X5.9547Y-4.2126
X5.9843Y-4.0453
X5.9941Y-4.2126
X6.0236Y-3.5827
X6.0236Y-4.0453
X6.0236Y-4.4094
X6.0236Y-4.6457
X6.0335Y-4.2126
X6.063Y-4.0453
X6.0728Y-4.2126
X6.1024Y-3.5827
X6.1024Y-4.0453
X6.1024Y-4.4094
X6.1024Y-4.6457
X6.1122Y-4.2126
X6.128Y-4.0925
X6.1417Y-4.0453
X6.1516Y-4.2126
X6.1673Y-4.0925
X6.1811Y-3.5827
X6.1811Y-4.0453
X6.1811Y-4.4094
X6.1811Y-4.6457
X6.1909Y-4.2126
X6.2067Y-4.0925
X6.2205Y-4.0453
X6.2362Y-4.2283
X6.2461Y-4.0925
X6.2598Y-3.5827
X6.2598Y-4.6457
X6.2854Y-4.0925
X6.2854Y-4.2894
X6.2854Y-4.3189
X6.2854Y-4.3484
X6.2856Y-4.3975
X6.3051Y-3.9764
X6.315Y-4.2894
X6.315Y-4.3189
X6.315Y-4.3484
X6.3248Y-4.0925
X6.3386Y-3.5827
X6.3386Y-4.2618
X6.3386Y-4.6457
X6.3543Y-4.0827
X6.3543Y-4.1122
X6.378Y-3.8583
X6.378Y-3.8976
X6.378Y-3.937
X6.378Y-3.9764
X6.3811Y-3.7827
X6.3839Y-4.4232
X6.4173Y-3.5827
X6.4173Y-4.6457
X6.4202Y-4.365
X6.4331Y-4.122
X6.4331Y-4.1614
X6.4331Y-4.1909
X6.4331Y-4.2205
X6.4331Y-4.25
X6.4331Y-4.2795
X6.4567Y-3.7627
X6.4626Y-4.122
X6.4626Y-4.1614
X6.4626Y-4.1909
X6.4626Y-4.2205
X6.4626Y-4.25
X6.4626Y-4.2795
X6.4705Y-4.3799
X6.4764Y-4.3445
X6.4921Y-4.122
X6.4921Y-4.1614
X6.4921Y-4.1909
X6.4921Y-4.2205
X6.4921Y-4.25
X6.4921Y-4.2795
X6.4961Y-3.5827
X6.4961Y-4.6457
X6.5231Y-4.4125
X6.5354Y-3.7627
X6.561Y-4.3287
X6.5709Y-4.122
X6.5709Y-4.1516
X6.5748Y-3.5827
X6.5748Y-4.6457
X6.6004Y-4.1024
X6.6102Y-4.1516
X6.6102Y-4.1811
X6.6142Y-3.7627
X6.6142Y-4.2717
X6.6535Y-3.5827
X6.6535Y-4.2717
X6.6535Y-4.6457
X6.6791Y-4.3681
X6.689Y-4.2717
X6.6929Y-3.8189
X6.6929Y-3.8976
X6.6929Y-4.1556
X6.7224Y-4.2717
X6.7323Y-3.5827
X6.7323Y-4.0886
X6.7323Y-4.6457
X6.7421Y-4.1556
X6.752Y-4.2717
X6.7717Y-3.8976
X6.7717Y-4.0886
X6.7913Y-4.1556
X6.8012Y-4.4094
X6.811Y-3.5827
X6.811Y-4.0886
X6.811Y-4.3307
X6.811Y-4.6457
X6.8406Y-4.1556
X6.8504Y-3.8976
X6.8504Y-4.0886
X6.8504Y-4.3307
X6.8602Y-4.3799
X6.8898Y-3.5827
X6.8898Y-4.0886
X6.8898Y-4.1555
X6.8898Y-4.3307
X6.8898Y-4.6457
X6.9291Y-3.8976
X6.9291Y-4.0886
X6.9685Y-3.5827
X6.9685Y-4.0886
X6.9685Y-4.1732
X6.9685Y-4.2126
X6.9685Y-4.252
X6.9685Y-4.6457
X6.9783Y-4.3406
X7.0079Y-3.8976
X7.0079Y-4.0886
X7.0472Y-3.5827
X7.0472Y-4.6457
X7.0866Y-3.8976
X7.126Y-3.5827
X7.126Y-4.5669
X7.126Y-4.6457
X7.1654Y-3.6614
X7.2047Y-3.5827
X7.2047Y-4.3307
X7.2047Y-4.4094
X7.2047Y-4.4882
X7.2047Y-4.5669
X7.2047Y-4.6457
X7.2441Y-3.622
X7.2441Y-3.7008
X7.2441Y-3.7795
X7.2441Y-3.8583
X7.2441Y-4.1732
X7.2441Y-4.252
T2
X5.6693Y-4.0157
X5.6693Y-4.2126
X7.126Y-3.9961
X7.126Y-4.1929
M30
