%TF.GenerationSoftware,KiCad,Pcbnew,9.0.3*%
%TF.CreationDate,2025-10-03T16:36:05+02:00*%
%TF.ProjectId,board,626f6172-642e-46b6-9963-61645f706362,rev?*%
%TF.SameCoordinates,Original*%
%TF.FileFunction,Legend,Bot*%
%TF.FilePolarity,Positive*%
%FSLAX46Y46*%
G04 Gerber Fmt 4.6, Leading zero omitted, Abs format (unit mm)*
G04 Created by KiCad (PCBNEW 9.0.3) date 2025-10-03 16:36:05*
%MOMM*%
%LPD*%
G01*
G04 APERTURE LIST*
G04 Aperture macros list*
%AMRoundRect*
0 Rectangle with rounded corners*
0 $1 Rounding radius*
0 $2 $3 $4 $5 $6 $7 $8 $9 X,Y pos of 4 corners*
0 Add a 4 corners polygon primitive as box body*
4,1,4,$2,$3,$4,$5,$6,$7,$8,$9,$2,$3,0*
0 Add four circle primitives for the rounded corners*
1,1,$1+$1,$2,$3*
1,1,$1+$1,$4,$5*
1,1,$1+$1,$6,$7*
1,1,$1+$1,$8,$9*
0 Add four rect primitives between the rounded corners*
20,1,$1+$1,$2,$3,$4,$5,0*
20,1,$1+$1,$4,$5,$6,$7,0*
20,1,$1+$1,$6,$7,$8,$9,0*
20,1,$1+$1,$8,$9,$2,$3,0*%
G04 Aperture macros list end*
%ADD10C,0.150000*%
%ADD11C,0.120000*%
%ADD12R,2.000000X2.000000*%
%ADD13RoundRect,0.250001X1.149999X-1.149999X1.149999X1.149999X-1.149999X1.149999X-1.149999X-1.149999X0*%
%ADD14C,2.800000*%
%ADD15RoundRect,0.250001X-1.149999X1.149999X-1.149999X-1.149999X1.149999X-1.149999X1.149999X1.149999X0*%
G04 APERTURE END LIST*
D10*
X165133332Y-108356819D02*
X164561904Y-108356819D01*
X164847618Y-109356819D02*
X164847618Y-108356819D01*
X164228570Y-109356819D02*
X164228570Y-108356819D01*
X164228570Y-108356819D02*
X163847618Y-108356819D01*
X163847618Y-108356819D02*
X163752380Y-108404438D01*
X163752380Y-108404438D02*
X163704761Y-108452057D01*
X163704761Y-108452057D02*
X163657142Y-108547295D01*
X163657142Y-108547295D02*
X163657142Y-108690152D01*
X163657142Y-108690152D02*
X163704761Y-108785390D01*
X163704761Y-108785390D02*
X163752380Y-108833009D01*
X163752380Y-108833009D02*
X163847618Y-108880628D01*
X163847618Y-108880628D02*
X164228570Y-108880628D01*
X163228570Y-109356819D02*
X163228570Y-108356819D01*
X163228570Y-108356819D02*
X162895237Y-109071104D01*
X162895237Y-109071104D02*
X162561904Y-108356819D01*
X162561904Y-108356819D02*
X162561904Y-109356819D01*
X161561904Y-109356819D02*
X162133332Y-109356819D01*
X161847618Y-109356819D02*
X161847618Y-108356819D01*
X161847618Y-108356819D02*
X161942856Y-108499676D01*
X161942856Y-108499676D02*
X162038094Y-108594914D01*
X162038094Y-108594914D02*
X162133332Y-108642533D01*
D11*
%TO.C,TPM1*%
X164500000Y-109700000D02*
X162100000Y-109700000D01*
X164500000Y-112100000D02*
X164500000Y-109700000D01*
X162100000Y-109700000D02*
X162100000Y-112100000D01*
X162100000Y-112100000D02*
X164500000Y-112100000D01*
%TD*%
%LPC*%
D12*
%TO.C,TPM1*%
X163300000Y-110900000D03*
%TD*%
D13*
%TO.C,J1*%
X181000000Y-106500000D03*
D14*
X181000000Y-101500000D03*
%TD*%
D15*
%TO.C,J2*%
X144000000Y-102000000D03*
D14*
X144000000Y-107000000D03*
%TD*%
%LPD*%
M02*
